# xmcd
#
# Track frame offsets: 
#        150
#        28171
#        49207
#        62282
#        77105
#        99175
#        116600
#        133905
#        150948
#        171553
#
# Disc length: 2506 seconds
#
# Revision: 0
# Processed by: cddbd v1.5.2PL0 Copyright (c) Steve Scherf et al.
# Submitted via: ExactAudioCopy v0.95a5
#
DISCID=7c09c80a
DTITLE=Crystal Shawanda - VooDoo Woman
DYEAR=2017
DGENRE=Blues
TTITLE0=Wang Dang Doodle
TTITLE1=Ball and Chain
TTITLE2=VooDoo Woman
TTITLE3=Hound Dog
TTITLE4=I'd Rather Go Blind
TTITLE5=Trouble
TTITLE6=Misty Blue
TTITLE7=Cry Aut For More
TTITLE8=I'II Always Love You
TTITLE9=Bluetrain 
EXTD=
EXTT0=
EXTT1=
EXTT2=
EXTT3=
EXTT4=
EXTT5=
EXTT6=
EXTT7=
EXTT8=
EXTT9=
PLAYORDER=
